<mxfile host="app.diagrams.net" agent="Mozilla/5.0 (Windows NT 10.0; Win64; x64) AppleWebKit/537.36 (KHTML, like Gecko) Chrome/136.0.0.0 Safari/537.36 Edg/136.0.0.0" version="26.3.0">
  <diagram name="Page-1" id="CSWryQ1_OxaGUJThJ_r2">
    <mxGraphModel dx="650" dy="1476" grid="1" gridSize="10" guides="1" tooltips="1" connect="1" arrows="1" fold="1" page="1" pageScale="1" pageWidth="850" pageHeight="1100" math="0" shadow="0">
      <root>
        <mxCell id="0" />
        <mxCell id="1" parent="0" />
        <mxCell id="d-iN1CaIQveeJLbJ0oML-1" value="SystemeAvion" style="swimlane;fontStyle=0;childLayout=stackLayout;horizontal=1;startSize=26;fillColor=#647687;horizontalStack=0;resizeParent=1;resizeParentMax=0;resizeLast=0;collapsible=1;marginBottom=0;whiteSpace=wrap;html=1;strokeColor=#314354;fontColor=#ffffff;" vertex="1" parent="1">
          <mxGeometry x="100" y="155" width="360" height="138" as="geometry" />
        </mxCell>
        <mxCell id="d-iN1CaIQveeJLbJ0oML-2" value="- instance : SystemeAvion" style="text;strokeColor=none;fillColor=none;align=left;verticalAlign=top;spacingLeft=4;spacingRight=4;overflow=hidden;rotatable=0;points=[[0,0.5],[1,0.5]];portConstraint=eastwest;whiteSpace=wrap;html=1;" vertex="1" parent="d-iN1CaIQveeJLbJ0oML-1">
          <mxGeometry y="26" width="360" height="26" as="geometry" />
        </mxCell>
        <mxCell id="d-iN1CaIQveeJLbJ0oML-3" value="- scenario : Scenario" style="text;strokeColor=none;fillColor=none;align=left;verticalAlign=top;spacingLeft=4;spacingRight=4;overflow=hidden;rotatable=0;points=[[0,0.5],[1,0.5]];portConstraint=eastwest;whiteSpace=wrap;html=1;" vertex="1" parent="d-iN1CaIQveeJLbJ0oML-1">
          <mxGeometry y="52" width="360" height="26" as="geometry" />
        </mxCell>
        <mxCell id="d-iN1CaIQveeJLbJ0oML-4" value="" style="line;strokeWidth=1;fillColor=none;align=left;verticalAlign=middle;spacingTop=-1;spacingLeft=3;spacingRight=3;rotatable=0;labelPosition=right;points=[];portConstraint=eastwest;strokeColor=inherit;" vertex="1" parent="d-iN1CaIQveeJLbJ0oML-1">
          <mxGeometry y="78" width="360" height="8" as="geometry" />
        </mxCell>
        <mxCell id="d-iN1CaIQveeJLbJ0oML-5" value="+ getInstance() : SystemeAvion" style="text;strokeColor=none;fillColor=none;align=left;verticalAlign=top;spacingLeft=4;spacingRight=4;overflow=hidden;rotatable=0;points=[[0,0.5],[1,0.5]];portConstraint=eastwest;whiteSpace=wrap;html=1;" vertex="1" parent="d-iN1CaIQveeJLbJ0oML-1">
          <mxGeometry y="86" width="360" height="26" as="geometry" />
        </mxCell>
        <mxCell id="d-iN1CaIQveeJLbJ0oML-6" value="" style="endArrow=diamondThin;endFill=1;endSize=24;html=1;rounded=0;exitX=0;exitY=0.5;exitDx=0;exitDy=0;edgeStyle=orthogonalEdgeStyle;entryX=0;entryY=0.5;entryDx=0;entryDy=0;" edge="1" parent="d-iN1CaIQveeJLbJ0oML-1" source="d-iN1CaIQveeJLbJ0oML-5" target="d-iN1CaIQveeJLbJ0oML-2">
          <mxGeometry width="160" relative="1" as="geometry">
            <mxPoint x="-180" y="30" as="sourcePoint" />
            <mxPoint x="-70" y="40" as="targetPoint" />
            <Array as="points">
              <mxPoint x="-30" y="100" />
              <mxPoint x="-30" y="39" />
            </Array>
          </mxGeometry>
        </mxCell>
        <mxCell id="d-iN1CaIQveeJLbJ0oML-7" value="1" style="edgeLabel;html=1;align=center;verticalAlign=middle;resizable=0;points=[];fontSize=15;" vertex="1" connectable="0" parent="d-iN1CaIQveeJLbJ0oML-6">
          <mxGeometry x="-0.617" y="-3" relative="1" as="geometry">
            <mxPoint x="-17" y="8" as="offset" />
          </mxGeometry>
        </mxCell>
        <mxCell id="d-iN1CaIQveeJLbJ0oML-8" value="1" style="edgeLabel;html=1;align=center;verticalAlign=middle;resizable=0;points=[];fontSize=15;" vertex="1" connectable="0" parent="d-iN1CaIQveeJLbJ0oML-6">
          <mxGeometry x="0.5638" y="2" relative="1" as="geometry">
            <mxPoint x="-13" y="-2" as="offset" />
          </mxGeometry>
        </mxCell>
        <mxCell id="d-iN1CaIQveeJLbJ0oML-40" value="+ chargerScenario(string cheminFichier)" style="text;strokeColor=none;fillColor=none;align=left;verticalAlign=top;spacingLeft=4;spacingRight=4;overflow=hidden;rotatable=0;points=[[0,0.5],[1,0.5]];portConstraint=eastwest;whiteSpace=wrap;html=1;" vertex="1" parent="d-iN1CaIQveeJLbJ0oML-1">
          <mxGeometry y="112" width="360" height="26" as="geometry" />
        </mxCell>
        <mxCell id="d-iN1CaIQveeJLbJ0oML-17" value="Scenario" style="swimlane;fontStyle=0;childLayout=stackLayout;horizontal=1;startSize=26;fillColor=#76608a;horizontalStack=0;resizeParent=1;resizeParentMax=0;resizeLast=0;collapsible=1;marginBottom=0;whiteSpace=wrap;html=1;strokeColor=#432D57;fontColor=#ffffff;" vertex="1" parent="1">
          <mxGeometry x="616" y="168" width="240" height="52" as="geometry" />
        </mxCell>
        <mxCell id="d-iN1CaIQveeJLbJ0oML-96" value="+ toString():string" style="text;strokeColor=none;fillColor=none;align=left;verticalAlign=top;spacingLeft=4;spacingRight=4;overflow=hidden;rotatable=0;points=[[0,0.5],[1,0.5]];portConstraint=eastwest;whiteSpace=wrap;html=1;" vertex="1" parent="d-iN1CaIQveeJLbJ0oML-17">
          <mxGeometry y="26" width="240" height="26" as="geometry" />
        </mxCell>
        <mxCell id="d-iN1CaIQveeJLbJ0oML-35" style="edgeStyle=orthogonalEdgeStyle;rounded=0;orthogonalLoop=1;jettySize=auto;html=1;exitX=0;exitY=0.5;exitDx=0;exitDy=0;endArrow=diamondThin;endFill=1;strokeWidth=2;endSize=16;" edge="1" parent="1" source="d-iN1CaIQveeJLbJ0oML-17" target="d-iN1CaIQveeJLbJ0oML-2">
          <mxGeometry relative="1" as="geometry">
            <mxPoint x="460" y="280" as="targetPoint" />
            <mxPoint x="610" y="280.33333333333337" as="sourcePoint" />
          </mxGeometry>
        </mxCell>
        <mxCell id="d-iN1CaIQveeJLbJ0oML-36" value="1" style="edgeLabel;html=1;align=center;verticalAlign=middle;resizable=0;points=[];fontSize=16;" vertex="1" connectable="0" parent="d-iN1CaIQveeJLbJ0oML-35">
          <mxGeometry x="0.5094" y="-4" relative="1" as="geometry">
            <mxPoint x="-17" y="-6" as="offset" />
          </mxGeometry>
        </mxCell>
        <mxCell id="d-iN1CaIQveeJLbJ0oML-37" value="1" style="edgeLabel;html=1;align=center;verticalAlign=middle;resizable=0;points=[];fontSize=15;" vertex="1" connectable="0" parent="d-iN1CaIQveeJLbJ0oML-35">
          <mxGeometry x="-0.673" y="-1" relative="1" as="geometry">
            <mxPoint x="15" y="-10" as="offset" />
          </mxGeometry>
        </mxCell>
        <mxCell id="d-iN1CaIQveeJLbJ0oML-41" value="FormSimulateur" style="swimlane;fontStyle=0;childLayout=stackLayout;horizontal=1;startSize=26;fillColor=#008a00;horizontalStack=0;resizeParent=1;resizeParentMax=0;resizeLast=0;collapsible=1;marginBottom=0;whiteSpace=wrap;html=1;strokeColor=#005700;fontColor=#ffffff;" vertex="1" parent="1">
          <mxGeometry x="110" y="-112" width="340" height="138" as="geometry" />
        </mxCell>
        <mxCell id="d-iN1CaIQveeJLbJ0oML-42" value="- instance : Vue" style="text;strokeColor=none;fillColor=none;align=left;verticalAlign=top;spacingLeft=4;spacingRight=4;overflow=hidden;rotatable=0;points=[[0,0.5],[1,0.5]];portConstraint=eastwest;whiteSpace=wrap;html=1;" vertex="1" parent="d-iN1CaIQveeJLbJ0oML-41">
          <mxGeometry y="26" width="340" height="26" as="geometry" />
        </mxCell>
        <mxCell id="d-iN1CaIQveeJLbJ0oML-45" value="- scenario : Scenario" style="text;strokeColor=none;fillColor=none;align=left;verticalAlign=top;spacingLeft=4;spacingRight=4;overflow=hidden;rotatable=0;points=[[0,0.5],[1,0.5]];portConstraint=eastwest;whiteSpace=wrap;html=1;" vertex="1" parent="d-iN1CaIQveeJLbJ0oML-41">
          <mxGeometry y="52" width="340" height="26" as="geometry" />
        </mxCell>
        <mxCell id="d-iN1CaIQveeJLbJ0oML-46" value="" style="line;strokeWidth=1;fillColor=none;align=left;verticalAlign=middle;spacingTop=-1;spacingLeft=3;spacingRight=3;rotatable=0;labelPosition=right;points=[];portConstraint=eastwest;strokeColor=inherit;" vertex="1" parent="d-iN1CaIQveeJLbJ0oML-41">
          <mxGeometry y="78" width="340" height="8" as="geometry" />
        </mxCell>
        <mxCell id="d-iN1CaIQveeJLbJ0oML-95" value="+ on_carteChange(objet sender)" style="text;strokeColor=none;fillColor=none;align=left;verticalAlign=top;spacingLeft=4;spacingRight=4;overflow=hidden;rotatable=0;points=[[0,0.5],[1,0.5]];portConstraint=eastwest;whiteSpace=wrap;html=1;" vertex="1" parent="d-iN1CaIQveeJLbJ0oML-41">
          <mxGeometry y="86" width="340" height="26" as="geometry" />
        </mxCell>
        <mxCell id="d-iN1CaIQveeJLbJ0oML-47" value="+ getInstance() : Vue" style="text;strokeColor=none;fillColor=none;align=left;verticalAlign=top;spacingLeft=4;spacingRight=4;overflow=hidden;rotatable=0;points=[[0,0.5],[1,0.5]];portConstraint=eastwest;whiteSpace=wrap;html=1;" vertex="1" parent="d-iN1CaIQveeJLbJ0oML-41">
          <mxGeometry y="112" width="340" height="26" as="geometry" />
        </mxCell>
        <mxCell id="d-iN1CaIQveeJLbJ0oML-48" value="" style="endArrow=diamondThin;endFill=1;endSize=24;html=1;rounded=0;exitX=0;exitY=0.5;exitDx=0;exitDy=0;edgeStyle=orthogonalEdgeStyle;entryX=0;entryY=0.5;entryDx=0;entryDy=0;" edge="1" parent="d-iN1CaIQveeJLbJ0oML-41" target="d-iN1CaIQveeJLbJ0oML-42">
          <mxGeometry width="160" relative="1" as="geometry">
            <mxPoint y="64.99999999999977" as="sourcePoint" />
            <mxPoint y="40" as="targetPoint" />
            <Array as="points">
              <mxPoint x="-30" y="65" />
              <mxPoint x="-30" y="39" />
            </Array>
          </mxGeometry>
        </mxCell>
        <mxCell id="d-iN1CaIQveeJLbJ0oML-49" value="1" style="edgeLabel;html=1;align=center;verticalAlign=middle;resizable=0;points=[];fontSize=15;" vertex="1" connectable="0" parent="d-iN1CaIQveeJLbJ0oML-48">
          <mxGeometry x="-0.617" y="-3" relative="1" as="geometry">
            <mxPoint x="-18" y="12" as="offset" />
          </mxGeometry>
        </mxCell>
        <mxCell id="d-iN1CaIQveeJLbJ0oML-50" value="1" style="edgeLabel;html=1;align=center;verticalAlign=middle;resizable=0;points=[];fontSize=15;" vertex="1" connectable="0" parent="d-iN1CaIQveeJLbJ0oML-48">
          <mxGeometry x="0.5638" y="2" relative="1" as="geometry">
            <mxPoint x="-16" y="-3" as="offset" />
          </mxGeometry>
        </mxCell>
        <mxCell id="d-iN1CaIQveeJLbJ0oML-60" value="" style="endArrow=open;endFill=1;endSize=12;html=1;rounded=0;entryX=0.25;entryY=0;entryDx=0;entryDy=0;exitX=0.241;exitY=1.045;exitDx=0;exitDy=0;exitPerimeter=0;" edge="1" parent="1" source="d-iN1CaIQveeJLbJ0oML-47">
          <mxGeometry width="160" relative="1" as="geometry">
            <mxPoint x="190" as="sourcePoint" />
            <mxPoint x="190" y="155" as="targetPoint" />
          </mxGeometry>
        </mxCell>
        <mxCell id="d-iN1CaIQveeJLbJ0oML-61" value="1" style="edgeLabel;html=1;align=center;verticalAlign=middle;resizable=0;points=[];fontSize=14;" vertex="1" connectable="0" parent="d-iN1CaIQveeJLbJ0oML-60">
          <mxGeometry x="-0.432" y="-4" relative="1" as="geometry">
            <mxPoint x="-5" y="-7" as="offset" />
          </mxGeometry>
        </mxCell>
        <mxCell id="d-iN1CaIQveeJLbJ0oML-62" value="1" style="edgeLabel;html=1;align=center;verticalAlign=middle;resizable=0;points=[];fontSize=14;" vertex="1" connectable="0" parent="d-iN1CaIQveeJLbJ0oML-60">
          <mxGeometry x="0.3159" y="-4" relative="1" as="geometry">
            <mxPoint x="-6" y="9" as="offset" />
          </mxGeometry>
        </mxCell>
        <mxCell id="d-iN1CaIQveeJLbJ0oML-73" value="" style="endArrow=open;endFill=1;endSize=12;html=1;rounded=0;entryX=0.679;entryY=0.958;entryDx=0;entryDy=0;exitX=0.667;exitY=-0.015;exitDx=0;exitDy=0;exitPerimeter=0;entryPerimeter=0;" edge="1" parent="1" source="d-iN1CaIQveeJLbJ0oML-1" target="d-iN1CaIQveeJLbJ0oML-47">
          <mxGeometry width="160" relative="1" as="geometry">
            <mxPoint x="360" y="149" as="sourcePoint" />
            <mxPoint x="360" y="-6" as="targetPoint" />
          </mxGeometry>
        </mxCell>
        <mxCell id="d-iN1CaIQveeJLbJ0oML-74" value="1" style="edgeLabel;html=1;align=center;verticalAlign=middle;resizable=0;points=[];fontSize=14;" vertex="1" connectable="0" parent="d-iN1CaIQveeJLbJ0oML-73">
          <mxGeometry x="-0.432" y="-4" relative="1" as="geometry">
            <mxPoint x="-5" y="13" as="offset" />
          </mxGeometry>
        </mxCell>
        <mxCell id="d-iN1CaIQveeJLbJ0oML-75" value="1" style="edgeLabel;html=1;align=center;verticalAlign=middle;resizable=0;points=[];fontSize=14;" vertex="1" connectable="0" parent="d-iN1CaIQveeJLbJ0oML-73">
          <mxGeometry x="0.3159" y="-4" relative="1" as="geometry">
            <mxPoint x="-6" y="-19" as="offset" />
          </mxGeometry>
        </mxCell>
        <mxCell id="d-iN1CaIQveeJLbJ0oML-76" value="" style="endArrow=diamondThin;endFill=0;endSize=24;html=1;rounded=0;exitX=0.5;exitY=0;exitDx=0;exitDy=0;edgeStyle=orthogonalEdgeStyle;entryX=1;entryY=0.5;entryDx=0;entryDy=0;" edge="1" parent="1" source="d-iN1CaIQveeJLbJ0oML-17" target="d-iN1CaIQveeJLbJ0oML-42">
          <mxGeometry width="160" relative="1" as="geometry">
            <mxPoint x="650" y="180" as="sourcePoint" />
            <mxPoint x="469.9999999999998" y="-343" as="targetPoint" />
            <Array as="points">
              <mxPoint x="736" y="-73" />
            </Array>
          </mxGeometry>
        </mxCell>
        <mxCell id="d-iN1CaIQveeJLbJ0oML-77" value="1" style="edgeLabel;html=1;align=center;verticalAlign=middle;resizable=0;points=[];fontSize=15;" vertex="1" connectable="0" parent="d-iN1CaIQveeJLbJ0oML-76">
          <mxGeometry x="-0.617" y="-3" relative="1" as="geometry">
            <mxPoint x="11" y="83" as="offset" />
          </mxGeometry>
        </mxCell>
        <mxCell id="d-iN1CaIQveeJLbJ0oML-78" value="1" style="edgeLabel;html=1;align=center;verticalAlign=middle;resizable=0;points=[];fontSize=15;" vertex="1" connectable="0" parent="d-iN1CaIQveeJLbJ0oML-76">
          <mxGeometry x="0.5638" y="2" relative="1" as="geometry">
            <mxPoint x="-79" y="-19" as="offset" />
          </mxGeometry>
        </mxCell>
        <mxCell id="d-iN1CaIQveeJLbJ0oML-79" style="edgeStyle=orthogonalEdgeStyle;rounded=0;orthogonalLoop=1;jettySize=auto;html=1;exitX=1;exitY=0.5;exitDx=0;exitDy=0;entryX=0.25;entryY=0;entryDx=0;entryDy=0;endArrow=open;endFill=0;" edge="1" parent="1" source="d-iN1CaIQveeJLbJ0oML-47" target="d-iN1CaIQveeJLbJ0oML-17">
          <mxGeometry relative="1" as="geometry" />
        </mxCell>
        <mxCell id="d-iN1CaIQveeJLbJ0oML-80" value="1" style="edgeLabel;html=1;align=center;verticalAlign=middle;resizable=0;points=[];" vertex="1" connectable="0" parent="d-iN1CaIQveeJLbJ0oML-79">
          <mxGeometry x="0.8321" y="-1" relative="1" as="geometry">
            <mxPoint x="-5" y="13" as="offset" />
          </mxGeometry>
        </mxCell>
        <mxCell id="d-iN1CaIQveeJLbJ0oML-82" value="1" style="edgeLabel;html=1;align=center;verticalAlign=middle;resizable=0;points=[];" vertex="1" connectable="0" parent="d-iN1CaIQveeJLbJ0oML-79">
          <mxGeometry x="-0.7929" y="1" relative="1" as="geometry">
            <mxPoint x="-9" y="14" as="offset" />
          </mxGeometry>
        </mxCell>
        <mxCell id="d-iN1CaIQveeJLbJ0oML-83" value="Aeroport" style="swimlane;fontStyle=0;childLayout=stackLayout;horizontal=1;startSize=26;fillColor=#e1d5e7;horizontalStack=0;resizeParent=1;resizeParentMax=0;resizeLast=0;collapsible=1;marginBottom=0;whiteSpace=wrap;html=1;strokeColor=#9673a6;" vertex="1" parent="1">
          <mxGeometry x="950" y="129" width="170" height="164" as="geometry">
            <mxRectangle x="770" y="146" width="90" height="30" as="alternateBounds" />
          </mxGeometry>
        </mxCell>
        <mxCell id="d-iN1CaIQveeJLbJ0oML-84" value="- id: Guid" style="text;strokeColor=none;fillColor=none;align=left;verticalAlign=top;spacingLeft=4;spacingRight=4;overflow=hidden;rotatable=0;points=[[0,0.5],[1,0.5]];portConstraint=eastwest;whiteSpace=wrap;html=1;" vertex="1" parent="d-iN1CaIQveeJLbJ0oML-83">
          <mxGeometry y="26" width="170" height="26" as="geometry" />
        </mxCell>
        <mxCell id="d-iN1CaIQveeJLbJ0oML-85" value="- nom : string" style="text;strokeColor=none;fillColor=none;align=left;verticalAlign=top;spacingLeft=4;spacingRight=4;overflow=hidden;rotatable=0;points=[[0,0.5],[1,0.5]];portConstraint=eastwest;whiteSpace=wrap;html=1;" vertex="1" parent="d-iN1CaIQveeJLbJ0oML-83">
          <mxGeometry y="52" width="170" height="26" as="geometry" />
        </mxCell>
        <mxCell id="d-iN1CaIQveeJLbJ0oML-86" value="- achalandagePassager : int" style="text;strokeColor=none;fillColor=none;align=left;verticalAlign=top;spacingLeft=4;spacingRight=4;overflow=hidden;rotatable=0;points=[[0,0.5],[1,0.5]];portConstraint=eastwest;whiteSpace=wrap;html=1;" vertex="1" parent="d-iN1CaIQveeJLbJ0oML-83">
          <mxGeometry y="78" width="170" height="26" as="geometry" />
        </mxCell>
        <mxCell id="d-iN1CaIQveeJLbJ0oML-87" value="- achalandageCargaison: int" style="text;strokeColor=none;fillColor=none;align=left;verticalAlign=top;spacingLeft=4;spacingRight=4;overflow=hidden;rotatable=0;points=[[0,0.5],[1,0.5]];portConstraint=eastwest;whiteSpace=wrap;html=1;" vertex="1" parent="d-iN1CaIQveeJLbJ0oML-83">
          <mxGeometry y="104" width="170" height="26" as="geometry" />
        </mxCell>
        <mxCell id="d-iN1CaIQveeJLbJ0oML-88" value="" style="line;strokeWidth=1;fillColor=none;align=left;verticalAlign=middle;spacingTop=-1;spacingLeft=3;spacingRight=3;rotatable=0;labelPosition=right;points=[];portConstraint=eastwest;strokeColor=inherit;" vertex="1" parent="d-iN1CaIQveeJLbJ0oML-83">
          <mxGeometry y="130" width="170" height="8" as="geometry" />
        </mxCell>
        <mxCell id="d-iN1CaIQveeJLbJ0oML-97" value="+ toString():string" style="text;strokeColor=none;fillColor=none;align=left;verticalAlign=top;spacingLeft=4;spacingRight=4;overflow=hidden;rotatable=0;points=[[0,0.5],[1,0.5]];portConstraint=eastwest;whiteSpace=wrap;html=1;" vertex="1" parent="d-iN1CaIQveeJLbJ0oML-83">
          <mxGeometry y="138" width="170" height="26" as="geometry" />
        </mxCell>
        <mxCell id="d-iN1CaIQveeJLbJ0oML-93" style="edgeStyle=orthogonalEdgeStyle;rounded=0;orthogonalLoop=1;jettySize=auto;html=1;endArrow=diamondThin;endFill=1;entryX=1;entryY=0.5;entryDx=0;entryDy=0;endSize=20;" edge="1" parent="1" source="d-iN1CaIQveeJLbJ0oML-85" target="d-iN1CaIQveeJLbJ0oML-17">
          <mxGeometry relative="1" as="geometry" />
        </mxCell>
        <mxCell id="d-iN1CaIQveeJLbJ0oML-99" value="n" style="edgeLabel;html=1;align=center;verticalAlign=middle;resizable=0;points=[];fontSize=16;" vertex="1" connectable="0" parent="d-iN1CaIQveeJLbJ0oML-93">
          <mxGeometry x="-0.6596" y="-3" relative="1" as="geometry">
            <mxPoint y="-10" as="offset" />
          </mxGeometry>
        </mxCell>
        <mxCell id="d-iN1CaIQveeJLbJ0oML-98" value="1" style="edgeLabel;html=1;align=center;verticalAlign=middle;resizable=0;points=[];fontSize=15;" vertex="1" connectable="0" parent="1">
          <mxGeometry x="760" y="160" as="geometry">
            <mxPoint x="108" y="20" as="offset" />
          </mxGeometry>
        </mxCell>
        <mxCell id="d-iN1CaIQveeJLbJ0oML-100" value="Aeronef&amp;nbsp; &amp;nbsp; &amp;nbsp; &amp;nbsp; &amp;nbsp; *" style="swimlane;fontStyle=0;childLayout=stackLayout;horizontal=1;startSize=26;fillColor=#e1d5e7;horizontalStack=0;resizeParent=1;resizeParentMax=0;resizeLast=0;collapsible=1;marginBottom=0;whiteSpace=wrap;html=1;strokeColor=#9673a6;" vertex="1" parent="1">
          <mxGeometry x="1225.33" y="136" width="140" height="156" as="geometry" />
        </mxCell>
        <mxCell id="d-iN1CaIQveeJLbJ0oML-101" value="- id: Guid" style="text;strokeColor=none;fillColor=none;align=left;verticalAlign=top;spacingLeft=4;spacingRight=4;overflow=hidden;rotatable=0;points=[[0,0.5],[1,0.5]];portConstraint=eastwest;whiteSpace=wrap;html=1;" vertex="1" parent="d-iN1CaIQveeJLbJ0oML-100">
          <mxGeometry y="26" width="140" height="26" as="geometry" />
        </mxCell>
        <mxCell id="d-iN1CaIQveeJLbJ0oML-102" value="- nom : string" style="text;strokeColor=none;fillColor=none;align=left;verticalAlign=top;spacingLeft=4;spacingRight=4;overflow=hidden;rotatable=0;points=[[0,0.5],[1,0.5]];portConstraint=eastwest;whiteSpace=wrap;html=1;" vertex="1" parent="d-iN1CaIQveeJLbJ0oML-100">
          <mxGeometry y="52" width="140" height="26" as="geometry" />
        </mxCell>
        <mxCell id="d-iN1CaIQveeJLbJ0oML-103" value="- vitesse : int" style="text;strokeColor=none;fillColor=none;align=left;verticalAlign=top;spacingLeft=4;spacingRight=4;overflow=hidden;rotatable=0;points=[[0,0.5],[1,0.5]];portConstraint=eastwest;whiteSpace=wrap;html=1;" vertex="1" parent="d-iN1CaIQveeJLbJ0oML-100">
          <mxGeometry y="78" width="140" height="26" as="geometry" />
        </mxCell>
        <mxCell id="d-iN1CaIQveeJLbJ0oML-104" value="- tempsEntretien :int" style="text;strokeColor=none;fillColor=none;align=left;verticalAlign=top;spacingLeft=4;spacingRight=4;overflow=hidden;rotatable=0;points=[[0,0.5],[1,0.5]];portConstraint=eastwest;whiteSpace=wrap;html=1;" vertex="1" parent="d-iN1CaIQveeJLbJ0oML-100">
          <mxGeometry y="104" width="140" height="26" as="geometry" />
        </mxCell>
        <mxCell id="d-iN1CaIQveeJLbJ0oML-105" value="+ toString() : string" style="text;strokeColor=none;fillColor=none;align=left;verticalAlign=top;spacingLeft=4;spacingRight=4;overflow=hidden;rotatable=0;points=[[0,0.5],[1,0.5]];portConstraint=eastwest;whiteSpace=wrap;html=1;" vertex="1" parent="d-iN1CaIQveeJLbJ0oML-100">
          <mxGeometry y="130" width="140" height="26" as="geometry" />
        </mxCell>
        <mxCell id="d-iN1CaIQveeJLbJ0oML-108" value="AvionPassager" style="swimlane;fontStyle=0;childLayout=stackLayout;horizontal=1;startSize=26;fillColor=#b1ddf0;horizontalStack=0;resizeParent=1;resizeParentMax=0;resizeLast=0;collapsible=1;marginBottom=0;whiteSpace=wrap;html=1;strokeColor=#10739e;" vertex="1" parent="1">
          <mxGeometry x="1635.33" y="50" width="140" height="52" as="geometry" />
        </mxCell>
        <mxCell id="d-iN1CaIQveeJLbJ0oML-109" value="- capaciteMaximale:int" style="text;strokeColor=none;fillColor=none;align=left;verticalAlign=top;spacingLeft=4;spacingRight=4;overflow=hidden;rotatable=0;points=[[0,0.5],[1,0.5]];portConstraint=eastwest;whiteSpace=wrap;html=1;" vertex="1" parent="d-iN1CaIQveeJLbJ0oML-108">
          <mxGeometry y="26" width="140" height="26" as="geometry" />
        </mxCell>
        <mxCell id="d-iN1CaIQveeJLbJ0oML-110" value="AvionCargaison" style="swimlane;fontStyle=0;childLayout=stackLayout;horizontal=1;startSize=26;fillColor=#b1ddf0;horizontalStack=0;resizeParent=1;resizeParentMax=0;resizeLast=0;collapsible=1;marginBottom=0;whiteSpace=wrap;html=1;strokeColor=#10739e;" vertex="1" parent="1">
          <mxGeometry x="1635.33" y="122" width="140" height="52" as="geometry" />
        </mxCell>
        <mxCell id="d-iN1CaIQveeJLbJ0oML-111" value="- cargoMaximal:double" style="text;strokeColor=none;fillColor=none;align=left;verticalAlign=top;spacingLeft=4;spacingRight=4;overflow=hidden;rotatable=0;points=[[0,0.5],[1,0.5]];portConstraint=eastwest;whiteSpace=wrap;html=1;" vertex="1" parent="d-iN1CaIQveeJLbJ0oML-110">
          <mxGeometry y="26" width="140" height="26" as="geometry" />
        </mxCell>
        <mxCell id="d-iN1CaIQveeJLbJ0oML-112" value="AvionSecours" style="swimlane;fontStyle=0;childLayout=stackLayout;horizontal=1;startSize=26;fillColor=#b1ddf0;horizontalStack=0;resizeParent=1;resizeParentMax=0;resizeLast=0;collapsible=1;marginBottom=0;whiteSpace=wrap;html=1;strokeColor=#10739e;" vertex="1" parent="1">
          <mxGeometry x="1635.33" y="210" width="140" height="52" as="geometry" />
        </mxCell>
        <mxCell id="d-iN1CaIQveeJLbJ0oML-113" value="AvionCiterne" style="swimlane;fontStyle=0;childLayout=stackLayout;horizontal=1;startSize=26;fillColor=#b1ddf0;horizontalStack=0;resizeParent=1;resizeParentMax=0;resizeLast=0;collapsible=1;marginBottom=0;whiteSpace=wrap;html=1;strokeColor=#10739e;" vertex="1" parent="1">
          <mxGeometry x="1635.33" y="283" width="140" height="52" as="geometry" />
        </mxCell>
        <mxCell id="d-iN1CaIQveeJLbJ0oML-114" value="- capacite : int" style="text;strokeColor=none;fillColor=none;align=left;verticalAlign=top;spacingLeft=4;spacingRight=4;overflow=hidden;rotatable=0;points=[[0,0.5],[1,0.5]];portConstraint=eastwest;whiteSpace=wrap;html=1;" vertex="1" parent="d-iN1CaIQveeJLbJ0oML-113">
          <mxGeometry y="26" width="140" height="26" as="geometry" />
        </mxCell>
        <mxCell id="d-iN1CaIQveeJLbJ0oML-115" value="AvionTransport&amp;nbsp; &amp;nbsp; &amp;nbsp; &amp;nbsp;*" style="swimlane;fontStyle=0;childLayout=stackLayout;horizontal=1;startSize=26;fillColor=#bac8d3;horizontalStack=0;resizeParent=1;resizeParentMax=0;resizeLast=0;collapsible=1;marginBottom=0;whiteSpace=wrap;html=1;strokeColor=#23445d;" vertex="1" parent="1">
          <mxGeometry x="1415.33" y="68" width="150" height="78" as="geometry" />
        </mxCell>
        <mxCell id="d-iN1CaIQveeJLbJ0oML-116" value="- tempsEmbarquement:int" style="text;strokeColor=none;fillColor=none;align=left;verticalAlign=top;spacingLeft=4;spacingRight=4;overflow=hidden;rotatable=0;points=[[0,0.5],[1,0.5]];portConstraint=eastwest;whiteSpace=wrap;html=1;" vertex="1" parent="d-iN1CaIQveeJLbJ0oML-115">
          <mxGeometry y="26" width="150" height="26" as="geometry" />
        </mxCell>
        <mxCell id="d-iN1CaIQveeJLbJ0oML-117" value="- tempsDebarquement:int" style="text;strokeColor=none;fillColor=none;align=left;verticalAlign=top;spacingLeft=4;spacingRight=4;overflow=hidden;rotatable=0;points=[[0,0.5],[1,0.5]];portConstraint=eastwest;whiteSpace=wrap;html=1;" vertex="1" parent="d-iN1CaIQveeJLbJ0oML-115">
          <mxGeometry y="52" width="150" height="26" as="geometry" />
        </mxCell>
        <mxCell id="d-iN1CaIQveeJLbJ0oML-118" value="" style="endArrow=block;endSize=16;endFill=0;html=1;rounded=0;entryX=1;entryY=0.5;entryDx=0;entryDy=0;exitX=0;exitY=0.75;exitDx=0;exitDy=0;edgeStyle=orthogonalEdgeStyle;" edge="1" parent="1" source="d-iN1CaIQveeJLbJ0oML-115" target="d-iN1CaIQveeJLbJ0oML-101">
          <mxGeometry width="160" relative="1" as="geometry">
            <mxPoint x="1405.33" y="236" as="sourcePoint" />
            <mxPoint x="1385.33" y="174" as="targetPoint" />
            <Array as="points">
              <mxPoint x="1405.33" y="126" />
              <mxPoint x="1405.33" y="175" />
            </Array>
          </mxGeometry>
        </mxCell>
        <mxCell id="d-iN1CaIQveeJLbJ0oML-119" value="" style="endArrow=block;endSize=16;endFill=0;html=1;rounded=0;entryX=1;entryY=0.5;entryDx=0;entryDy=0;exitX=0;exitY=0.25;exitDx=0;exitDy=0;edgeStyle=orthogonalEdgeStyle;" edge="1" parent="1" source="d-iN1CaIQveeJLbJ0oML-110" target="d-iN1CaIQveeJLbJ0oML-115">
          <mxGeometry width="160" relative="1" as="geometry">
            <mxPoint x="1520.33" y="143.5" as="sourcePoint" />
            <mxPoint x="1450.33" y="190.5" as="targetPoint" />
            <Array as="points">
              <mxPoint x="1605.33" y="135" />
              <mxPoint x="1605.33" y="107" />
            </Array>
          </mxGeometry>
        </mxCell>
        <mxCell id="d-iN1CaIQveeJLbJ0oML-120" value="" style="endArrow=block;endSize=16;endFill=0;html=1;rounded=0;entryX=1;entryY=0.5;entryDx=0;entryDy=0;exitX=0;exitY=0.5;exitDx=0;exitDy=0;edgeStyle=orthogonalEdgeStyle;" edge="1" parent="1" source="d-iN1CaIQveeJLbJ0oML-109" target="d-iN1CaIQveeJLbJ0oML-116">
          <mxGeometry width="160" relative="1" as="geometry">
            <mxPoint x="1645.33" y="168" as="sourcePoint" />
            <mxPoint x="1565.33" y="104" as="targetPoint" />
            <Array as="points">
              <mxPoint x="1635.33" y="90" />
              <mxPoint x="1605.33" y="90" />
              <mxPoint x="1605.33" y="107" />
            </Array>
          </mxGeometry>
        </mxCell>
        <mxCell id="d-iN1CaIQveeJLbJ0oML-121" value="AvionService&amp;nbsp; &amp;nbsp; &amp;nbsp; &amp;nbsp; &amp;nbsp;*" style="swimlane;fontStyle=0;childLayout=stackLayout;horizontal=1;startSize=26;fillColor=#bac8d3;horizontalStack=0;resizeParent=1;resizeParentMax=0;resizeLast=0;collapsible=1;marginBottom=0;whiteSpace=wrap;html=1;strokeColor=#23445d;" vertex="1" parent="1">
          <mxGeometry x="1420.33" y="231" width="140" height="52" as="geometry" />
        </mxCell>
        <mxCell id="d-iN1CaIQveeJLbJ0oML-122" value="" style="endArrow=block;endSize=16;endFill=0;html=1;rounded=0;entryX=1;entryY=0.5;entryDx=0;entryDy=0;exitX=0;exitY=0.75;exitDx=0;exitDy=0;edgeStyle=orthogonalEdgeStyle;" edge="1" parent="1" source="d-iN1CaIQveeJLbJ0oML-121" target="d-iN1CaIQveeJLbJ0oML-101">
          <mxGeometry width="160" relative="1" as="geometry">
            <mxPoint x="1425.33" y="117" as="sourcePoint" />
            <mxPoint x="1375.33" y="184" as="targetPoint" />
            <Array as="points">
              <mxPoint x="1405.33" y="270" />
              <mxPoint x="1405.33" y="174" />
              <mxPoint x="1385.33" y="174" />
              <mxPoint x="1385.33" y="175" />
            </Array>
          </mxGeometry>
        </mxCell>
        <mxCell id="d-iN1CaIQveeJLbJ0oML-123" value="" style="endArrow=block;endSize=16;endFill=0;html=1;rounded=0;entryX=1;entryY=0.75;entryDx=0;entryDy=0;exitX=0;exitY=0.5;exitDx=0;exitDy=0;edgeStyle=orthogonalEdgeStyle;" edge="1" parent="1" target="d-iN1CaIQveeJLbJ0oML-121">
          <mxGeometry width="160" relative="1" as="geometry">
            <mxPoint x="1635.33" y="249" as="sourcePoint" />
            <mxPoint x="1565.33" y="104" as="targetPoint" />
            <Array as="points">
              <mxPoint x="1605.33" y="249" />
              <mxPoint x="1605.33" y="270" />
            </Array>
          </mxGeometry>
        </mxCell>
        <mxCell id="d-iN1CaIQveeJLbJ0oML-124" value="" style="endArrow=block;endSize=16;endFill=0;html=1;rounded=0;entryX=1;entryY=0.75;entryDx=0;entryDy=0;edgeStyle=orthogonalEdgeStyle;" edge="1" parent="1" target="d-iN1CaIQveeJLbJ0oML-121">
          <mxGeometry width="160" relative="1" as="geometry">
            <mxPoint x="1635.33" y="300" as="sourcePoint" />
            <mxPoint x="1565.33" y="280" as="targetPoint" />
            <Array as="points">
              <mxPoint x="1635.33" y="300" />
              <mxPoint x="1605.33" y="300" />
              <mxPoint x="1605.33" y="270" />
            </Array>
          </mxGeometry>
        </mxCell>
        <mxCell id="d-iN1CaIQveeJLbJ0oML-126" style="edgeStyle=orthogonalEdgeStyle;rounded=0;orthogonalLoop=1;jettySize=auto;html=1;endArrow=diamondThin;endFill=1;endSize=20;exitX=0;exitY=0.5;exitDx=0;exitDy=0;" edge="1" parent="1" source="d-iN1CaIQveeJLbJ0oML-102">
          <mxGeometry relative="1" as="geometry">
            <mxPoint x="1214" y="193.58" as="sourcePoint" />
            <mxPoint x="1120" y="210" as="targetPoint" />
            <Array as="points">
              <mxPoint x="1225" y="210" />
            </Array>
          </mxGeometry>
        </mxCell>
        <mxCell id="d-iN1CaIQveeJLbJ0oML-127" value="n" style="edgeLabel;html=1;align=center;verticalAlign=middle;resizable=0;points=[];fontSize=16;" vertex="1" connectable="0" parent="d-iN1CaIQveeJLbJ0oML-126">
          <mxGeometry x="-0.6596" y="-3" relative="1" as="geometry">
            <mxPoint y="-10" as="offset" />
          </mxGeometry>
        </mxCell>
        <mxCell id="d-iN1CaIQveeJLbJ0oML-128" value="1" style="edgeLabel;html=1;align=center;verticalAlign=middle;resizable=0;points=[];" vertex="1" connectable="0" parent="d-iN1CaIQveeJLbJ0oML-126">
          <mxGeometry x="0.501" y="1" relative="1" as="geometry">
            <mxPoint x="-2" y="-11" as="offset" />
          </mxGeometry>
        </mxCell>
      </root>
    </mxGraphModel>
  </diagram>
</mxfile>
